<?xml version="1.0" standalone="no"?>
<!DOCTYPE svg PUBLIC "-//W3C//DTD SVG 20010904//EN"
 "http://www.w3.org/TR/2001/REC-SVG-20010904/DTD/svg10.dtd">
<svg version="1.0" xmlns="http://www.w3.org/2000/svg"
 width="357.000000pt" height="201.000000pt" viewBox="0 0 357.000000 201.000000"
 preserveAspectRatio="xMidYMid meet">
<metadata>
Created by potrace 1.16, written by Peter Selinger 2001-2019
</metadata>
<g transform="translate(0.000000,201.000000) scale(0.100000,-0.100000)"
fill="#000000" stroke="none">
<path d="M1685 1545 c-163 -36 -295 -125 -357 -242 l-23 -42 -70 6 c-173 14
-321 -84 -369 -246 -20 -67 -20 -133 -2 -194 8 -26 12 -47 9 -47 -3 0 -30 7
-61 16 -74 22 -168 13 -239 -21 -262 -129 -265 -499 -5 -627 l67 -33 440 -3
440 -3 -36 38 c-70 73 -74 86 -77 306 -3 181 -5 197 -21 197 -21 0 -51 30 -51
52 0 8 8 22 18 31 17 15 65 17 490 17 459 0 473 -1 492 -20 11 -11 20 -24 20
-30 0 -17 -39 -50 -60 -50 -19 0 -20 -7 -20 -193 0 -187 -1 -195 -26 -245 -14
-28 -39 -63 -56 -77 l-31 -26 385 3 384 3 76 38 c88 43 147 102 187 187 23 49
26 68 26 165 0 105 -2 114 -33 177 -38 79 -107 145 -190 184 -43 21 -77 28
-145 32 -87 5 -88 5 -83 28 23 90 14 177 -25 255 -65 129 -236 204 -378 166
l-54 -15 -62 63 c-132 133 -360 194 -560 150z m235 -200 c0 -65 23 -116 79
-178 91 -102 109 -146 90 -221 -21 -83 -122 -147 -206 -131 l-33 6 6 62 c7 73
-7 118 -62 204 -60 94 -50 151 47 257 66 72 79 72 79 1z m-216 -90 c-26 -63
-19 -115 27 -186 54 -83 69 -119 69 -169 0 -51 -27 -80 -74 -80 -40 0 -52 12
-64 67 -5 23 -28 69 -50 103 -67 100 -66 164 6 232 39 37 82 68 94 68 4 0 0
-16 -8 -35z m444 -125 c89 -64 128 -192 82 -267 -19 -33 -39 -42 -95 -46 -37
-2 -37 11 -5 98 30 83 16 158 -43 223 -20 22 -20 22 0 22 11 0 39 -13 61 -30z
m-584 -167 c53 -86 48 -126 -16 -143 -49 -14 -70 -7 -103 31 -45 55 -32 137
36 229 l34 45 6 -52 c4 -33 19 -72 43 -110z"/>
<path d="M1809 498 c4 -94 -13 -131 -57 -126 -24 3 -27 7 -26 40 1 33 0 35
-18 25 -10 -7 -35 -35 -55 -64 -69 -100 -51 -192 46 -236 37 -17 67 -21 146
-22 128 0 175 18 205 80 37 77 22 160 -44 240 l-25 30 1 -43 c0 -53 -23 -85
-46 -62 -7 8 -19 37 -25 64 -13 51 -49 110 -85 137 -21 16 -21 16 -17 -63z"/>
</g>
</svg>
