<?xml version="1.0" standalone="no"?>
<!DOCTYPE svg PUBLIC "-//W3C//DTD SVG 20010904//EN"
 "http://www.w3.org/TR/2001/REC-SVG-20010904/DTD/svg10.dtd">
<svg version="1.0" xmlns="http://www.w3.org/2000/svg"
 width="626.000000pt" height="626.000000pt" viewBox="0 0 626.000000 626.000000"
 preserveAspectRatio="xMidYMid meet">
<metadata>
Created by potrace 1.16, written by Peter Selinger 2001-2019
</metadata>
<g transform="translate(0.000000,626.000000) scale(0.100000,-0.100000)"
fill="#000000" stroke="none">
<path d="M3025 4125 c-90 -19 -156 -48 -222 -94 -60 -42 -124 -115 -142 -164
-10 -27 -11 -27 -84 -21 -248 21 -443 -208 -373 -439 8 -26 12 -47 9 -47 -3 0
-30 7 -61 16 -115 34 -247 -2 -336 -91 -171 -171 -118 -460 102 -563 l57 -27
440 -3 440 -3 -36 38 c-70 73 -74 86 -77 306 -3 181 -5 197 -21 197 -21 0 -51
30 -51 52 0 8 8 22 18 31 17 15 65 17 490 17 459 0 473 -1 492 -20 11 -11 20
-24 20 -30 0 -17 -39 -50 -60 -50 -19 0 -20 -7 -20 -193 0 -187 -1 -195 -26
-245 -14 -28 -39 -63 -56 -77 l-31 -26 385 3 384 3 76 38 c87 43 142 98 185
186 25 51 28 66 28 166 0 93 -3 118 -23 159 -67 146 -208 236 -368 236 l-65 0
8 38 c4 20 8 67 7 103 -3 205 -212 360 -413 306 l-54 -15 -62 63 c-132 133
-359 194 -560 150z m235 -200 c0 -65 23 -116 79 -178 61 -69 80 -98 91 -138
19 -70 -22 -159 -89 -193 -35 -18 -105 -29 -131 -21 -19 6 -20 12 -14 68 7 73
-7 118 -60 202 -48 74 -49 131 -6 198 32 48 103 117 120 117 6 0 10 -25 10
-55z m-216 -90 c-26 -63 -19 -115 27 -186 54 -83 69 -119 69 -169 0 -51 -27
-80 -74 -80 -40 0 -52 12 -64 67 -5 23 -28 69 -50 103 -67 100 -66 164 6 232
39 37 82 68 94 68 4 0 0 -16 -8 -35z m444 -125 c89 -64 128 -192 82 -267 -19
-33 -39 -42 -95 -46 -37 -2 -37 11 -5 98 30 83 16 158 -43 223 -20 22 -20 22
0 22 11 0 39 -13 61 -30z m-584 -167 c52 -85 48 -126 -14 -143 -72 -19 -130
28 -130 107 0 52 16 92 61 153 l34 45 6 -52 c4 -33 19 -72 43 -110z"/>
<path d="M3149 3078 c4 -94 -13 -131 -57 -126 -24 3 -27 7 -26 41 1 33 -1 36
-15 25 -55 -45 -101 -125 -101 -179 0 -52 40 -104 97 -126 70 -27 235 -26 282
2 53 31 74 67 79 133 4 63 -12 107 -62 167 l-25 30 -1 -46 c0 -54 -22 -82 -44
-58 -7 8 -19 36 -25 63 -13 51 -49 110 -85 137 -21 16 -21 16 -17 -63z"/>
<path d="M1835 2493 c-58 -14 -87 -84 -62 -145 27 -65 123 -76 168 -20 l21 27
-26 3 c-14 2 -33 -4 -42 -12 -19 -20 -34 -20 -62 0 -24 16 -29 53 -12 85 11
20 64 27 75 9 3 -5 20 -10 36 -10 27 0 29 2 19 21 -7 11 -27 27 -45 35 -36 15
-37 15 -70 7z"/>
<path d="M2252 2485 c-87 -39 -70 -173 25 -191 98 -18 162 93 96 166 -34 36
-76 45 -121 25z"/>
<path d="M2470 2411 c0 -74 2 -81 26 -100 15 -12 39 -21 54 -21 15 0 39 9 54
21 24 19 26 26 26 100 0 72 -2 79 -20 79 -18 0 -20 -7 -20 -64 0 -62 -14 -96
-40 -96 -26 0 -40 34 -40 96 0 57 -2 64 -20 64 -18 0 -20 -7 -20 -79z"/>
<path d="M2710 2389 l0 -101 60 4 c81 6 115 37 115 104 0 38 -5 50 -28 70 -23
20 -39 24 -88 24 l-59 0 0 -101z"/>
<path d="M3050 2390 l0 -100 25 0 c23 0 25 4 25 40 0 22 3 40 8 40 4 0 20 -18
35 -40 20 -28 36 -40 53 -40 13 0 24 3 24 6 0 3 -16 25 -35 48 -19 24 -35 47
-35 51 0 4 16 28 36 51 l35 44 -28 0 c-21 0 -35 -11 -58 -41 l-30 -41 -3 41
c-3 36 -6 41 -28 41 -24 0 -24 -1 -24 -100z"/>
<path d="M3641 2466 c-29 -31 -37 -85 -18 -123 32 -60 125 -69 168 -15 l21 27
-26 3 c-14 2 -33 -4 -42 -12 -21 -21 -47 -20 -67 2 -20 22 -22 73 -5 90 15 15
64 16 73 2 3 -5 17 -10 31 -10 29 0 31 13 4 40 -30 30 -109 28 -139 -4z"/>
<path d="M3880 2390 c0 -92 1 -100 19 -100 16 0 20 8 23 43 3 42 3 42 43 42
40 0 40 0 43 -42 3 -35 7 -43 23 -43 18 0 19 8 19 100 0 92 -1 100 -19 100
-16 0 -20 -8 -23 -37 -3 -37 -4 -38 -43 -38 -39 0 -40 1 -43 38 -3 29 -7 37
-23 37 -18 0 -19 -8 -19 -100z"/>
<path d="M4130 2390 l0 -100 60 0 c53 0 60 2 60 20 0 17 -7 20 -40 20 -36 0
-40 3 -40 25 0 22 4 25 35 25 24 0 35 5 35 15 0 10 -11 15 -35 15 -31 0 -35 3
-35 25 0 23 4 25 40 25 29 0 40 4 40 15 0 12 -13 15 -60 15 l-60 0 0 -100z"/>
<path d="M4320 2390 c0 -93 1 -100 20 -100 18 0 20 7 20 60 0 33 3 60 8 60 4
0 24 -27 46 -60 29 -46 44 -60 62 -60 24 0 24 1 24 100 l0 100 -25 0 c-24 0
-25 -3 -25 -62 l0 -63 -41 63 c-32 47 -47 62 -65 62 -24 0 -24 -1 -24 -100z"/>
</g>
</svg>
